
<svg xmlns="http://www.w3.org/2000/svg" version="1.1" xmlns:xlink="http://www.w3.org/1999/xlink" preserveAspectRatio="none" x="0px" y="0px" width="100px" height="100px" viewBox="0 0 100 100">
<defs>
<g id="Layer0_0_FILL">
<path fill="#FFFFFF" stroke="none" d="
M 71.5 32.7
Q 59.6 24.95 47.1 24.95 34.55 24.95 25.7 32.4 16.9 40 16.9 50.75 16.9 61.45 26.25 68.75 35.55 76 45.35 75 55.1 73.95 51.9 67.9 49.75 64.65 47.1 63.2 47.3 59.45 61.45 60.55 83 61.95 83.15 51.25 83.3 40.55 71.5 32.7
M 54.1 28.75
Q 55.85 29.85 55.85 31.4 55.85 32.95 54.1 34 52.4 35.1 50 35.1 47.6 35.1 45.9 34 44.15 32.95 44.15 31.4 44.15 29.85 45.9 28.75 47.6 27.65 50 27.7 52.4 27.65 54.1 28.75
M 61 35.6
Q 62.65 34.5 65.1 34.5 67.45 34.5 69.2 35.6 70.9 36.7 70.95 38.25 70.9 39.75 69.2 40.85 67.45 41.9 65.1 41.95 62.65 41.9 61 40.85 59.3 39.75 59.3 38.25 59.3 36.7 61 35.6
M 69.2 47.85
Q 69.2 46.35 70.75 45.4 72.25 44.4 74.45 44.4 76.6 44.4 78.2 45.4 79.7 46.35 79.75 47.85 79.7 49.2 78.2 50.2 76.6 51.15 74.45 51.15 72.25 51.15 70.75 50.2 69.2 49.2 69.2 47.85
M 38 32.2
Q 39.5 33.2 39.55 34.65 39.5 36 38 37 36.45 38 34.25 38 32.05 38 30.55 37 29 36 29 34.65 29 33.2 30.55 32.2 32.05 31.2 34.25 31.2 36.45 31.2 38 32.2
M 29.55 46.7
Q 28.15 47.55 26.2 47.55 24.2 47.55 22.8 46.7 21.35 45.8 21.4 44.5 21.35 43.2 22.8 42.3 24.2 41.4 26.2 41.45 28.15 41.4 29.55 42.3 30.95 43.2 30.95 44.5 30.95 45.8 29.55 46.7
M 35.35 52.3
Q 35.3 50.8 37.65 49.75 40.05 48.8 43.35 48.8 46.6 48.8 48.95 49.75 51.3 50.8 51.3 52.3 51.3 53.8 48.95 54.75 46.6 55.75 43.35 55.8 40.05 55.75 37.65 54.75 35.3 53.8 35.35 52.3 Z"/>
</g>
</defs>

<g transform="matrix( 1, 0, 0, 1, 0,0) ">
<use xlink:href="#Layer0_0_FILL"/>
</g>
</svg>
