
<svg xmlns="http://www.w3.org/2000/svg" version="1.1" xmlns:xlink="http://www.w3.org/1999/xlink" preserveAspectRatio="none" x="0px" y="0px" width="100px" height="100px" viewBox="0 0 100 100">
<defs>
<g id="Layer0_0_FILL">
<path fill="#FFFFFF" stroke="none" d="
M 83.45 54.4
L 83.45 45.55 72.05 45.55 72.05 44.45
Q 71.2 40.75 69 37.45
L 76.95 29.45 70.65 23.25 62.8 31.1
Q 59.55 28.9 55.65 27.95
L 54.3 27.6 54.3 16.75 45.6 16.75 45.6 27.5
Q 40.9 28.5 37.35 30.9
L 29.7 23.25 23.4 29.45 31.05 37.2
Q 28.4 41.2 27.55 45.55
L 16.6 45.55 16.6 54.4 27.55 54.4
Q 28.4 58.75 31.05 62.75
L 23.4 70.5 29.7 76.7 37.35 69.1
Q 40.9 71.45 45.6 72.5
L 45.6 83.25 54.3 83.25 54.3 72.35 55.65 72.05
Q 59.55 71.05 62.8 68.9
L 70.65 76.7 76.95 70.5 69 62.5
Q 71.2 59.2 72.05 55.5
L 72.05 54.4 83.45 54.4
M 46.5 46.75
Q 47.85 45.4 49.7 45.4 51.6 45.4 52.95 46.75 54.3 48.1 54.3 49.95
L 54.3 50.05
Q 54.3 51.85 52.95 53.2 51.6 54.55 49.7 54.55 47.85 54.55 46.5 53.2 45.15 51.85 45.2 50.05
L 45.2 49.95
Q 45.15 48.1 46.5 46.75 Z"/>
</g>
</defs>

<g transform="matrix( 1, 0, 0, 1, 0,0) ">
<use xlink:href="#Layer0_0_FILL"/>
</g>
</svg>
