
<svg xmlns="http://www.w3.org/2000/svg" version="1.1" xmlns:xlink="http://www.w3.org/1999/xlink" preserveAspectRatio="none" x="0px" y="0px" width="100px" height="100px" viewBox="0 0 100 100">
<defs>
<g id="Layer0_0_FILL">
<path fill="#FFFFFF" stroke="none" d="
M 52.05 28
Q 50.85 29.05 49.95 30.45 49.05 29.05 47.85 28 42.75 23.55 32.75 24.55 29.35 24.85 25.3 25.9
L 22.05 24.65 22.05 68.3 46.4 75.7 53.6 75.7 77.95 68.3 77.95 24.65 74.65 25.9
Q 70.6 24.85 67.15 24.55 57.15 23.55 52.05 28
M 67.15 28
Q 70.6 28.3 74.65 29.35
L 74.65 64.95
Q 70.6 63.4 63.9 62.85 57.15 62.2 52.05 65.25
L 52.05 31.5
Q 57.15 27 67.15 28
M 25.3 29.35
Q 29.35 28.3 32.75 28 42.75 27 47.85 31.5
L 47.85 65.25
Q 42.75 62.2 36.05 62.85 29.35 63.4 25.3 64.95
L 25.3 29.35 Z"/>
</g>
</defs>

<g transform="matrix( 1, 0, 0, 1, 0,0) ">
<use xlink:href="#Layer0_0_FILL"/>
</g>
</svg>
