
<svg xmlns="http://www.w3.org/2000/svg" version="1.1" xmlns:xlink="http://www.w3.org/1999/xlink" preserveAspectRatio="none" x="0px" y="0px" width="100px" height="100px" viewBox="0 0 100 100">
<defs>
<g id="Layer0_0_FILL">
<path fill="#FFFFFF" stroke="none" d="
M 54.65 36.15
Q 56.6 34.25 56.6 31.45 56.6 28.7 54.65 26.75 52.65 24.8 49.95 24.8 47.25 24.8 45.3 26.75 43.3 28.7 43.3 31.45 43.3 34.25 45.3 36.15 47.25 38.1 49.95 38.1 52.65 38.1 54.65 36.15
M 70.1 21.15
Q 68.2 21.15 66.85 22.5 65.5 23.85 65.5 25.75 65.5 28.25 67.5 29.55 66.45 34.55 62.65 38 58.85 41.45 53.75 41.9
L 46.15 41.9
Q 41.05 41.45 37.25 38 33.45 34.55 32.45 29.55 34.4 28.25 34.45 25.75 34.4 23.85 33.05 22.5 31.7 21.15 29.85 21.15 27.95 21.15 26.6 22.5 25.2 23.85 25.25 25.75 25.25 28.7 28.05 30.05 28.95 35.25 32.35 39.3 35.75 43.4 40.65 45.15
L 42.65 61.1
Q 38.45 62.8 35.45 66.3 32.4 69.85 31.25 74.4
L 26.45 74.4 26.45 78.9 35.3 78.9
Q 35.3 72.7 39.65 68.35 43.9 64.05 49.95 64 56 64.05 60.25 68.35 64.6 72.7 64.6 78.9
L 73.5 78.9 73.5 74.4 68.65 74.4
Q 67.5 69.85 64.5 66.3 61.45 62.8 57.25 61.1
L 59.25 45.15
Q 64.15 43.4 67.55 39.3 70.95 35.25 71.9 30.05 74.7 28.7 74.7 25.75 74.7 23.85 73.35 22.5 71.95 21.15 70.1 21.15 Z"/>
</g>
</defs>

<g transform="matrix( 1, 0, 0, 1, 0,0) ">
<use xlink:href="#Layer0_0_FILL"/>
</g>
</svg>
