
<svg xmlns="http://www.w3.org/2000/svg" version="1.1" xmlns:xlink="http://www.w3.org/1999/xlink" preserveAspectRatio="none" x="0px" y="0px" width="100px" height="100px" viewBox="0 0 100 100">
<defs>
<g id="Layer0_0_FILL">
<path fill="#FFFFFF" stroke="none" d="
M 70.8 19.95
Q 69.5 18.6 68 18.05 66.55 17.5 64.9 17.5
L 35 17.5
Q 33.35 17.5 31.95 18.05 30.35 18.6 29.05 19.95 27.75 21.25 27.2 22.85 26.6 24.25 26.6 25.85
L 26.6 74.15
Q 26.6 77.6 29.05 80.05 30.35 81.35 31.95 82 33 82.35 34.2 82.5
L 64.9 82.5
Q 66.55 82.5 68 82 69.5 81.3 70.8 80.05 73.3 77.6 73.3 74.15
L 73.3 25.85
Q 73.3 22.45 70.8 19.95
M 64.75 22.85
Q 66 22.85 67 23.85 67.9 24.8 68 26.1
L 68 30.3
Q 67.9 31.55 67 32.5 66 33.5 64.75 33.55
L 35.2 33.55
Q 33.95 33.5 32.95 32.5 31.95 31.55 31.95 30.3
L 31.95 26.1
Q 31.95 24.8 32.95 23.85 33.95 22.85 35.2 22.85
L 64.75 22.85
M 45.6 39.85
Q 46.55 38.85 47.85 38.85
L 52.05 38.85
Q 52.65 38.85 53.25 39.1 53.8 39.35 54.3 39.85 55.25 40.8 55.3 42.1
L 55.3 42.25
Q 55.25 43.55 54.3 44.5 53.3 45.5 52.05 45.5
L 47.85 45.5
Q 46.55 45.5 45.6 44.5 44.6 43.55 44.6 42.25
L 44.6 42.1
Q 44.6 40.8 45.6 39.85
M 41.6 39.85
Q 42.6 40.8 42.6 42.1
L 42.6 42.25
Q 42.6 43.55 41.6 44.5 40.7 45.5 39.35 45.5
L 35.2 45.5
Q 33.95 45.5 32.95 44.5 31.95 43.55 31.95 42.25
L 31.95 42.1
Q 31.95 40.8 32.95 39.85 33.95 38.85 35.2 38.85
L 39.35 38.85
Q 40.7 38.85 41.6 39.85
M 45.6 49.15
Q 46.55 48.15 47.85 48.15
L 52.05 48.15
Q 53.3 48.15 54.3 49.15 55.25 50.1 55.3 51.4
L 55.3 51.6
Q 55.25 52.85 54.3 53.85 53.3 54.8 52.05 54.85
L 47.85 54.85
Q 47.25 54.8 46.7 54.6 46.1 54.35 45.6 53.85 44.6 52.85 44.6 51.6
L 44.6 51.4
Q 44.6 50.1 45.6 49.15
M 57.3 42.1
Q 57.3 40.8 58.3 39.85 58.55 39.6 58.85 39.4 59.6 38.85 60.55 38.85
L 64.75 38.85
Q 66 38.85 67 39.85 67.9 40.8 68 42.1
L 68 42.25
Q 67.9 43.55 67 44.5 66 45.5 64.75 45.5
L 60.55 45.5
Q 59.85 45.5 59.35 45.3 58.75 45 58.3 44.5 57.3 43.55 57.3 42.25
L 57.3 42.1
M 58.3 49.15
Q 58.85 48.55 59.55 48.35 60.05 48.15 60.55 48.15
L 64.75 48.15
Q 66 48.15 67 49.15 67.9 50.1 68 51.4
L 68 51.6
Q 67.9 52.85 67 53.85 66 54.8 64.75 54.85
L 60.55 54.85
Q 60.3 54.85 60.15 54.8 59.1 54.65 58.3 53.85 57.3 52.85 57.3 51.6
L 57.3 51.4
Q 57.3 50.1 58.3 49.15
M 32.95 49.15
Q 33.95 48.15 35.2 48.15
L 39.35 48.15
Q 40.7 48.15 41.6 49.15 42.6 50.1 42.6 51.4
L 42.6 51.6
Q 42.6 52.85 41.6 53.85 40.7 54.8 39.35 54.85
L 35.2 54.85
Q 33.95 54.8 32.95 53.85 31.95 52.85 31.95 51.6
L 31.95 51.4
Q 31.95 50.1 32.95 49.15
M 32.95 58.5
Q 33.95 57.5 35.2 57.5
L 39.35 57.5
Q 40.7 57.5 41.6 58.5 42.6 59.4 42.6 60.75
L 42.6 60.9
Q 42.6 61.1 42.6 61.3 42.45 62.35 41.6 63.15 41.55 63.25 41.5 63.35 40.55 64.1 39.35 64.15
L 35.2 64.15
Q 33.95 64.15 32.95 63.15 31.95 62.15 31.95 60.9
L 31.95 60.75
Q 31.95 59.4 32.95 58.5
M 32.95 67.85
Q 33.85 66.9 35.1 66.85
L 39.35 66.85
Q 40.45 66.85 41.25 67.55 41.45 67.65 41.6 67.85 42.6 68.8 42.6 70.1
L 42.6 70.3
Q 42.6 71.55 41.6 72.55 40.7 73.5 39.35 73.55
L 35.2 73.55
Q 34.95 73.5 34.75 73.5 33.75 73.3 32.95 72.55 31.95 71.55 31.95 70.3
L 31.95 70.1
Q 31.95 68.8 32.95 67.85
M 67 58.5
Q 67.9 59.4 68 60.75
L 68 60.9
Q 67.9 62.15 67 63.15 66 64.15 64.75 64.15
L 60.55 64.15
Q 59.25 64.15 58.3 63.15 57.3 62.15 57.3 60.9
L 57.3 60.75
Q 57.3 59.4 58.3 58.5 58.35 58.35 58.55 58.3 59.35 57.55 60.35 57.5 60.4 57.5 60.55 57.5
L 64.75 57.5
Q 66 57.5 67 58.5
M 67 72.55
Q 66 73.5 64.75 73.55
L 60.55 73.55
Q 59.25 73.5 58.3 72.55 57.3 71.55 57.3 70.3
L 57.3 70.1
Q 57.3 68.8 58.3 67.85 59.25 66.85 60.55 66.85
L 64.75 66.85
Q 66 66.85 67 67.85 67.9 68.8 68 70.1
L 68 70.3
Q 67.9 71.55 67 72.55
M 54.65 59
Q 55.25 59.8 55.3 60.75
L 55.3 60.9
Q 55.25 62.15 54.3 63.15 53.3 64.15 52.05 64.15
L 47.85 64.15
Q 46.55 64.15 45.6 63.15 44.6 62.15 44.6 60.9
L 44.6 60.75
Q 44.6 59.4 45.6 58.5 46.55 57.5 47.85 57.5
L 52.05 57.5
Q 53.3 57.5 54.3 58.5 54.5 58.75 54.65 59
M 46 67.55
Q 46.5 67.1 47.1 67 47.5 66.85 47.85 66.85
L 52.05 66.85
Q 53.3 66.85 54.3 67.85 55.25 68.8 55.3 70.1
L 55.3 70.3
Q 55.25 71.15 54.8 71.9 54.55 72.25 54.3 72.55 53.3 73.5 52.05 73.55
L 47.85 73.55
Q 46.55 73.5 45.6 72.55 44.6 71.55 44.6 70.3
L 44.6 70.1
Q 44.6 68.8 45.6 67.85 45.75 67.65 46 67.55 Z"/>
</g>
</defs>

<g transform="matrix( 1, 0, 0, 1, 0,0) ">
<use xlink:href="#Layer0_0_FILL"/>
</g>
</svg>
