
<svg xmlns="http://www.w3.org/2000/svg" version="1.1" xmlns:xlink="http://www.w3.org/1999/xlink" preserveAspectRatio="none" x="0px" y="0px" width="100px" height="100px" viewBox="0 0 100 100">
<defs>
<filter id="Filter_1" x="-20%" y="-20%" width="140%" height="140%" color-interpolation-filters="sRGB">
<feColorMatrix in="SourceGraphic" type="matrix" values="0 0 0 0 0.996078431372549 0 0 0 0 0.996078431372549 0 0 0 0 0.996078431372549 0 0 0 1 0" result="result1"/>
</filter>

<g id="ICONS__science_0_Layer0_0_FILL">
<path fill="#FFFFFF" stroke="none" d="
M 19.95 -248.05
Q 15.55234375 -250.6275390625 12.65 -248.95 9.7998046875 -247.232421875 9.9 -242.3 9.919921875 -237.8275390625 12.45 -230.7
L 8.6 -229.9
Q 4.23515625 -228.7525390625 1.35 -227.15 -3.1275390625 -224.7150390625 -3.15 -221.4 -3.125 -218.1951171875 1.05 -215.75 4.719921875 -213.6275390625 11.7 -212.25
L 12.4 -212.1
Q 9.9224609375 -205.19765625 9.9 -200.6 9.7998046875 -195.475 12.65 -193.95 15.6 -192.227734375 20.5 -195.25 24.1673828125 -197.5126953125 28.65 -202.8 32.607421875 -198.194921875 35.7 -195.95 36.274609375 -195.5478515625 36.8 -195.2 41.58984375 -192.14375 44.4 -193.95 47.244921875 -195.675 47.25 -200.6 47.23984375 -205.19765625 44.75 -212.1 49.75234375 -213.07265625 53.05 -214.35 56.3923828125 -215.7474609375 58.35 -217.65 60.35 -219.5525390625 60.35 -221.4 60.357421875 -223.3201171875 58.5 -225.2 56.5599609375 -227.1900390625 53.05 -228.5 49.9125 -229.7900390625 44.75 -230.8 46.8798828125 -236.355078125 47.25 -241.55 47.482421875 -247.067578125 44.45 -248.85 41.4216796875 -250.6251953125 36.8 -247.7 36.5767578125 -247.547265625 36.35 -247.4 32.63984375 -244.8 28.65 -240 24.03984375 -245.5525390625 19.95 -248.05
M 36.8 -243.15
Q 37.6205078125 -243.778125 38.4 -244.3 41.3974609375 -246.392578125 42.65 -245.75 43.7525390625 -245.0650390625 43.55 -241.7 43.4375 -237.825 41.1 -231.35
L 34.65 -232
Q 33.2875 -234.0349609375 30.9 -237.15 34.08671875 -240.9875 36.8 -243.15
M 30.15 -232.15
L 27.05 -232.15 28.65 -234.3 30.15 -232.15
M 38.75 -225.4
L 37.1 -228.15 39.85 -227.9 38.75 -225.4
M 24.5 -228.45
L 32.7 -228.45 36.7 -221.4
Q 36.6474609375 -221.192578125 34.85 -217.85
L 32.65 -214.35 24.6 -214.35 20.5 -221.5 24.5 -228.45
M 26.35 -237.15
Q 24.8349609375 -235.3150390625 22.6 -232 20.725 -231.9150390625 16.05 -231.35 13.7599609375 -237.632421875 13.55 -242.3 13.55 -245.1099609375 14.55 -245.85 15.4775390625 -246.4224609375 18.1 -244.9 21.8775390625 -242.5849609375 26.35 -237.15
M 10.25 -226.6
L 13.75 -227.3
Q 14.594921875 -225.067578125 16.4 -221.5 15.0775390625 -218.83515625 13.65 -215.5
L 12 -215.8
Q 6.2025390625 -217.0326171875 2.9 -218.85 0.525 -220.2724609375 0.5 -221.4 0.5173828125 -222.432421875 3.15 -224.05 5.9599609375 -225.592578125 10.25 -226.6
M 20.15 -228.15
L 18.45 -225.4 17.4 -227.9 20.15 -228.15
M 17.4 -214.9
L 18.6 -217.55 20.25 -214.65 17.4 -214.9
M 13.55 -200.5
Q 13.7599609375 -205.1474609375 16.05 -211.5
L 22.6 -210.85 26.35 -205.65
Q 21.7923828125 -200.3423828125 18.45 -198.3 15.5548828125 -196.4625 14.45 -197.05 13.55234375 -197.6625 13.55 -200.5
M 34.7 -210.85
Q 35.6521484375 -210.860546875 36.8 -211 38.6712890625 -211.1283203125 41.1 -211.5 43.557421875 -205.0376953125 43.55 -200.6 43.5525390625 -197.67265625 42.45 -197.05 41.2400390625 -196.31015625 37.9 -198.9 37.373046875 -199.2548828125 36.8 -199.7 34.130859375 -201.865234375 31 -205.65 32.7625 -207.705078125 34.7 -210.85
M 37.1 -214.65
L 37.9 -216.05
Q 38.4875 -216.9125 38.65 -217.4
L 39.75 -214.9 37.1 -214.65
M 27.05 -210.65
L 30.15 -210.65 28.65 -208.55 27.05 -210.65
M 43.45 -227.3
Q 48.7576171875 -226.2625 51.8 -225.05 56.7224609375 -223.1923828125 56.7 -221.4 56.72734375 -220.3525390625 55.25 -219.45 54.2822265625 -218.825 51.65 -217.85 48.075 -216.3875 43.45 -215.55 42.482421875 -218.1150390625 40.85 -221.4 42.5224609375 -224.75 43.45 -227.3
M 28.7 -224.95
Q 27.2875 -224.994921875 26.25 -224 25.1599609375 -223 25.15 -221.6 25.1548828125 -220.1576171875 26.2 -219.1 27.2048828125 -218.030078125 28.65 -218.05 30.05 -218.0326171875 31.05 -219 32.0423828125 -219.9599609375 32.05 -221.4 32.1525390625 -222.8375 31.15 -223.9 30.157421875 -224.8724609375 28.7 -224.95 Z"/>
</g>
</defs>

<g transform="matrix( 1.3901214599609375, 0, 0, 1.3901214599609375, 49.95,59.45) ">
<g transform="matrix( 0.761474609375, 0, 0, 0.761474609375, 0,-6.8) ">
<g transform="matrix( 1, 0, 0, 1, -28.6,221.45) ">
<use filter="url(#Filter_1)" xlink:href="#ICONS__science_0_Layer0_0_FILL"/>
</g>
</g>
</g>
</svg>
