
<svg xmlns="http://www.w3.org/2000/svg" version="1.1" xmlns:xlink="http://www.w3.org/1999/xlink" preserveAspectRatio="none" x="0px" y="0px" width="100px" height="100px" viewBox="0 0 100 100">
<defs>
<g id="Layer0_0_FILL">
<path fill="#FFFFFF" stroke="none" d="
M 60.2 20.85
Q 55.4 19.2 49.95 19.2 48.25 19.2 46.65 19.35
L 46.6 19.35
Q 41.7 19.85 37.3 21.8 33.110546875 23.6236328125 29.5 26.9 28.7767578125 27.4787109375 28.15 28.2 28.123046875 28.2232421875 28.1 28.25 19.1501953125 37.1857421875 19.2 49.95 19.15 53 19.75 55.85
L 19.75 55.8
Q 20.5 60.3 22.65 64.3 24.7 68.25 28.15 71.7
L 28.15 71.75
Q 30.15 73.75 32.4 75.35 40.05 80.75 49.95 80.75 62.7 80.75 71.7 71.75
L 71.75 71.7
Q 80.75 62.7 80.75 49.95 80.75 47.15 80.35 44.55
L 80.35 44.5
Q 78.7 35.2 71.75 28.2 66.6 23 60.2 20.85
M 49.95 23.45
Q 53.2 23.45 56.2 24.1
L 49.7 27.7
Q 49.55 27.8 49.45 28 49.4 28.1 49.4 28.25 49.4 28.4 49.55 28.5
L 53.25 33.1 51.9 35.95 49.95 35.95
Q 49.8 35.95 49.65 36.1
L 44.35 40.3
Q 44.2 40.4 44.2 40.65 44.1 40.8 44.2 40.95 44.25 41.1 44.4 41.2
L 48.8 43.8 44.8 45.35
Q 44.6 45.4 44.5 45.55 44.4 45.7 44.45 45.9
L 46.6 55.85
Q 46.65 56.1 46.85 56.2 46.95 56.3 47.15 56.3
L 54.5 56.3 57.05 71.45
Q 57.1 71.6 57.2 71.7 57.3 71.8 57.5 71.85 57.7 71.85 57.85 71.8
L 66.4 67.1
Q 66.5 67 66.6 66.9 66.7 66.8 66.7 66.6
L 66.7 55.15 71.4 50.3
Q 71.5 50.2 71.55 50.05 71.55 49.85 71.5 49.75 71.45 49.6 71.3 49.45
L 67.85 47.6 69.3 45.5 76.15 45.45
Q 76.5 47.6 76.5 49.95 76.5 60.95 68.75 68.75 60.95 76.5 49.95 76.5 41.45 76.5 34.8 71.9
L 34.85 71.9
Q 34.75 71.85 34.75 71.8
L 36.65 65.9
Q 36.65 65.75 36.65 65.6 36.6 65.45 36.55 65.35
L 31.25 59.7
Q 31.1 59.6 30.95 59.55 30.8 59.45 30.65 59.6
L 26.15 61.85
Q 24.55 58.7 23.9 55.15
L 27 53.8 28.35 55.75
Q 28.4 55.85 28.55 55.95 28.65 56 28.8 56
L 30.85 56
Q 31.05 56 31.2 55.8 31.35 55.65 31.35 55.45
L 31.35 51.45 33.45 42.8 40.85 33.5
Q 40.95 33.4 40.95 33.2 40.95 33.05 40.9 32.9 40.8 32.75 40.7 32.7
L 33.4 29.15
Q 35.7 27.25 38.3 25.95
L 39.95 31
Q 40 31.2 40.15 31.3 40.3 31.35 40.55 31.35 40.75 31.3 40.85 31.15
L 45.95 23.75
Q 46.45 23.65 47.05 23.6 48.45 23.45 49.95 23.45
M 73.8 59.25
L 71.35 55.1
Q 71.15 54.9 71 54.85 70.8 54.75 70.6 54.9 70.45 55.05 70.4 55.25
L 68.6 61.7
Q 68.45 61.85 68.6 62.05 68.7 62.25 68.9 62.35 69.1 62.4 69.3 62.3
L 73.6 60
Q 73.7 59.95 73.8 59.85 73.85 59.7 73.85 59.55 73.85 59.35 73.8 59.25 Z"/>
</g>
</defs>

<g transform="matrix( 1, 0, 0, 1, 0,0) ">
<use xlink:href="#Layer0_0_FILL"/>
</g>
</svg>
